<?xml version="1.0" standalone="no"?><!DOCTYPE svg PUBLIC "-//W3C//DTD SVG 1.1//EN" "http://www.w3.org/Graphics/SVG/1.1/DTD/svg11.dtd"><svg t="1737576708586" class="icon" viewBox="0 0 1039 1024" version="1.1" xmlns="http://www.w3.org/2000/svg" p-id="9888" xmlns:xlink="http://www.w3.org/1999/xlink" width="259.75" height="256"><path d="M657.12199999 237.012c-15.87 17.305-28.425 37.9-37.73899999 61.758-9.321 23.91-13.947 47.568-13.947 71.083 0 49.811 13.779 92.354 41.315 127.653 27.533 35.29 63.69700001 56.019 108.477 62.24100001l16.526 1.01299999 12.409 2.114c20.638 2.759 30.994 10.738 30.99399999 23.871 0 13.83899999-13.454 35.645-40.32199999 65.368-28.26 30.444-74.079 62.628-137.459 96.501-26.218 13.821-39.291 31.14699999-39.291 51.892 0 13.154 4.448 24.054 13.422 32.71199999 8.969 8.637 20.357 12.959 34.151 12.95900001 34.435 0 82.003-20.086 142.682-60.192 71.68300001-47.064 128.715-104.277 171.112-171.746 42.364-67.472 63.583-134.024 63.58299999-199.772 0-31.124-5.858-62.067-17.59099999-92.883-11.731-30.756-27.559-56.859-47.544-78.345-42.021-46.336-92.329-69.506-150.904-69.507-61.339 0-111.298 21.099-149.868 63.284l-0.005-0.00200001zM60.05399999 237.012c-15.867 17.305-28.485 37.735-37.79599999 61.229-9.317 23.549-13.978 47.421-13.978 71.61 0 49.814 14.001 92.185 41.998 127.136 28 34.944 64.446 55.83599999 109.405 62.757l15.577 1.013 13.48700001 2.114c20.718 2.76 31.092 10.739 31.09199999 23.871 0 13.83899999-13.852 35.644-41.504 65.367-29.054 31.848-75.053 63.997-137.967 96.502-26.297 13.821-39.442 31.147-39.442 51.892 0 13.154 4.488 24.05500001 13.456 32.712 8.965 8.636 20.378 12.959 34.201 12.959 34.52699999 0 82.181-20.086 142.949-60.193 71.804-47.066 129.112-104.277 171.94100001-171.746 42.82900001-67.474 64.243-134.024 64.24299999-199.772 0-31.124-5.889-62.067-17.62-92.88299999-11.719-30.756-27.617-56.859-47.629-78.34400001-42.13-46.336-92.872-69.506-152.225-69.507-60.75699999 0-110.84 21.099-150.186 63.284l-0.001 0z" p-id="9889" fill="#000000"></path></svg>