<?xml version="1.0" standalone="no"?><!DOCTYPE svg PUBLIC "-//W3C//DTD SVG 1.1//EN" "http://www.w3.org/Graphics/SVG/1.1/DTD/svg11.dtd"><svg t="1737720592548" class="icon" viewBox="0 0 1024 1024" version="1.1" xmlns="http://www.w3.org/2000/svg" p-id="36378" xmlns:xlink="http://www.w3.org/1999/xlink" width="256" height="256"><path d="M586.99999999 796.6c146.9-94.9 226.49999999-220.3 235.60000001-376.4-12.20000001 6.1-27.5 6.1-45.9 6.1-45.90000001 0-82.69999999-12.2-113.2-39.8-27.5-27.5-42.8-64.30000001-42.8-110.2 0-48.9 15.3-85.7 39.8-116.3 30.6-24.49999999 70.4-39.80000001 113.2-39.8 125.5 0 186.7 85.7 186.7 250.99999999 0 244.79999999-100.99999999 422.3-306 532.50000001L586.99999999 796.6z m-523.39999999 0c146.9-94.9 226.49999999-220.3 235.6-376.4-12.20000001 6.1-27.5 6.1-45.9 6.1-45.90000001 0-82.69999999-12.2-113.2-39.8-27.5-27.5-42.8-64.30000001-42.8-110.2 0-48.9 15.3-85.7 39.8-116.3 30.6-24.49999999 70.4-39.80000001 113.2-39.8 125.5 0 186.7 85.7 186.7 251 0 244.79999999-100.99999999 422.3-306 532.5l-67.4-107.1z" p-id="36379" fill="#000000"></path></svg>