<?xml version="1.0" standalone="no"?><!DOCTYPE svg PUBLIC "-//W3C//DTD SVG 1.1//EN" "http://www.w3.org/Graphics/SVG/1.1/DTD/svg11.dtd"><svg t="1737572706480" class="icon" viewBox="0 0 1024 1024" version="1.1" xmlns="http://www.w3.org/2000/svg" p-id="4106" xmlns:xlink="http://www.w3.org/1999/xlink" width="256" height="256"><path d="M707.872 484.64c37.504-44.544 60.128-102.016 60.128-164.64 0-141.152-114.848-256-256-256l-320 0 0 896 384 0c141.152 0 256-114.848 256-256 0-92.96-49.792-174.496-124.128-219.36zM384 192l101.504 0c55.968 0 101.504 57.408 101.504 128s-45.536 128-101.504 128l-101.504 0 0-256zM543.008 832l-159.008 0 0-256 159.008 0c58.464 0 106.016 57.408 106.016 128s-47.552 128-106.016 128z" fill="#000000" p-id="4107"></path></svg>