<?xml version="1.0" standalone="no"?><!DOCTYPE svg PUBLIC "-//W3C//DTD SVG 1.1//EN" "http://www.w3.org/Graphics/SVG/1.1/DTD/svg11.dtd"><svg t="1737720266548" class="icon" viewBox="0 0 1024 1024" version="1.1" xmlns="http://www.w3.org/2000/svg" p-id="32371" xmlns:xlink="http://www.w3.org/1999/xlink" width="256" height="256"><path d="M519.1 960c95.3 0 170-23 224-69.1s81-108.8 81-188.3-14.3-100.1-42.9-138.2-68.3-63.5-119.1-76.3c41.3-15.9 74.7-40.5 100.1-73.9 25.4-33.4 38.1-70.7 38.1-112 0-76.3-25.4-135-76.3-176.3-50.8-41.3-125.5-62-224-62H199.8v896h319.3z m4.8-419.4c117.6 0 176.3 54 176.3 162s-15.9 90.6-47.7 119.1c-31.8 28.6-76.3 42.9-133.4 42.9H318.9V540.5h204.9zM319 164.1h181.1c60.4 0 104.9 11.1 133.4 33.4 28.6 22.2 42.9 56.4 42.9 102.5s-15.9 81.8-47.7 107.2c-31.8 25.4-73.1 38.1-123.9 38.1H318.9V164.1z" p-id="32372" fill="#000000"></path></svg>