<?xml version="1.0" standalone="no"?><!DOCTYPE svg PUBLIC "-//W3C//DTD SVG 1.1//EN" "http://www.w3.org/Graphics/SVG/1.1/DTD/svg11.dtd"><svg t="1737570816812" class="icon" viewBox="0 0 1024 1024" version="1.1" xmlns="http://www.w3.org/2000/svg" p-id="16164" xmlns:xlink="http://www.w3.org/1999/xlink" width="256" height="256"><path d="M195.2 210.56h313.92c68.16 0 121.92 16.32 160.32 48.96 35.52 30.72 53.76 72 53.76 123.84 0 38.4-9.6 71.04-27.84 97.92-18.24 24.96-44.16 43.2-78.72 56.64 45.12 8.64 78.72 26.88 101.76 54.72 22.08 26.88 33.6 64.32 33.6 110.4 0 69.12-24 120-71.04 152.64-40.32 26.88-97.92 40.32-170.88 40.32H195.2V210.56z m112.32 92.16v195.84H479.36c48 0 81.6-8.64 101.76-24 19.2-16.32 29.76-42.24 29.76-77.76 0-32.64-10.56-56.64-29.76-71.04-21.12-15.36-53.76-23.04-99.84-23.04H307.52z m0 288v213.12h186.24c42.24 0 75.84-6.72 99.84-20.16 30.72-17.28 46.08-44.16 46.08-82.56 0-39.36-11.52-67.2-33.6-84.48-23.04-17.28-59.52-25.92-109.44-25.92H307.52z" fill="#1D1E1F" p-id="16165"></path></svg>