<?xml version="1.0" standalone="no"?><!DOCTYPE svg PUBLIC "-//W3C//DTD SVG 1.1//EN" "http://www.w3.org/Graphics/SVG/1.1/DTD/svg11.dtd"><svg t="1737719114181" class="icon" viewBox="0 0 1024 1024" version="1.1" xmlns="http://www.w3.org/2000/svg" p-id="23087" xmlns:xlink="http://www.w3.org/1999/xlink" width="256" height="256"><path d="M274.181224 713.038367a40.75102 40.75102 0 0 1 57.636572 0c13.938939 13.918041 15.924245 35.819102 4.242286 52.662857l-4.242286 5.036409-125.387755 125.387755c-13.938939 13.918041-35.819102 15.882449-52.704653 4.116898l-4.911021-4.179592-62.693877-62.693878A40.75102 40.75102 0 0 1 83.591837 778.428082c13.52098-16.216816 37.198367-19.435102 55.170612-6.896327l5.036408 4.242286 33.854694 33.833796 96.548571-96.548572z m634.838205 50.802939a40.75102 40.75102 0 0 1 40.667428 37.07298c1.901714 21.023347-12.538776 40.019592-34.168163 43.885714l-6.478367 0.543347H449.32702a40.75102 40.75102 0 0 1-40.667428-37.07298c-1.901714-21.023347 12.538776-40.019592 34.168163-43.885714l6.478367-0.543347h459.713307zM274.202122 420.466939a40.75102 40.75102 0 0 1 57.615674 0l4.179592 4.931918c9.989224 13.813551 10.407184 32.747102 0.062694 47.710041l-4.242286 5.036408-125.387755 125.387755c-13.938939 13.918041-35.819102 15.882449-52.641959 4.179592l-4.973715-4.179592-62.693877-62.693877A40.75102 40.75102 0 0 1 83.591837 485.877551c13.52098-16.216816 37.198367-19.435102 55.107918-6.938122l5.099102 4.221387 33.854694 33.89649 96.548571-96.590367z m634.817307 50.782041a40.75102 40.75102 0 0 1 40.667428 37.072979c1.901714 21.023347-12.538776 40.019592-34.168163 43.885714l-6.478367 0.543347H449.32702a40.75102 40.75102 0 0 1-40.667428-37.072979c-1.901714-21.023347 12.538776-40.019592 34.168163-43.885714l6.478367-0.543347h459.713307zM274.202122 127.937306a40.75102 40.75102 0 0 1 57.615674 0c13.938939 13.897143 15.924245 35.798204 4.179592 52.704653l-4.179592 4.911021-125.387755 125.387755c-13.897143 13.938939-35.798204 15.924245-52.704653 4.179592l-4.911021-4.179592-62.693877-62.693878A40.75102 40.75102 0 0 1 83.591837 193.306122c13.52098-16.216816 37.198367-19.435102 55.170612-6.896326l5.036408 4.242286 33.854694 33.833796 96.548571-96.548572z m634.817307 50.719347a40.75102 40.75102 0 0 1 40.667428 37.07298c1.901714 21.023347-12.538776 40.019592-34.168163 43.885714l-6.478367 0.543347H449.32702a40.75102 40.75102 0 0 1-40.667428-37.07298c-1.901714-21.023347 12.538776-40.019592 34.168163-43.885714l6.478367-0.543347h459.713307z" p-id="23088" fill="#000000"></path></svg>