<?xml version="1.0" standalone="no"?><!DOCTYPE svg PUBLIC "-//W3C//DTD SVG 1.1//EN" "http://www.w3.org/Graphics/SVG/1.1/DTD/svg11.dtd"><svg t="1737699147902" class="icon" viewBox="0 0 1025 1024" version="1.1" xmlns="http://www.w3.org/2000/svg" p-id="30993" xmlns:xlink="http://www.w3.org/1999/xlink" width="256.25" height="256"><path d="M938.496 402.432V209.92c0-68.096-55.808-123.392-123.392-123.392H217.6c-68.096 0-123.392 55.808-123.392 123.392v81.408h99.84c28.16 0 51.2 23.04 51.2 51.2s-23.04 51.2-51.2 51.2h-99.84v230.4h99.84c29.696 0 53.76 24.064 53.76 53.76s-24.064 53.76-53.76 53.76h-99.84v76.288c0 68.096 55.808 123.392 123.392 123.392h596.992c68.096 0 123.392-55.808 123.392-123.392v-186.88c50.176-11.264 87.552-55.808 87.552-109.056 0.512-53.76-37.376-98.304-87.04-109.568zM691.712 706.048H354.304c-15.36 0-28.16-12.8-28.16-28.16s12.8-28.16 28.16-28.16h337.408c15.872 0 28.16 12.8 28.16 28.16s-11.776 28.16-28.16 28.16z m0-167.936H354.304c-15.36 0-28.16-12.8-28.16-28.16s12.8-28.16 28.16-28.16h337.408c15.872 0 28.16 12.8 28.16 28.16 0 15.872-11.776 28.16-28.16 28.16z m0-167.424H354.304c-15.36 0-28.16-12.8-28.16-28.16 0-15.872 12.8-28.16 28.16-28.16h337.408c15.872 0 28.16 12.8 28.16 28.16s-11.776 28.16-28.16 28.16z m222.72 196.608c-30.72 0-55.296-24.576-55.296-55.296 0-30.208 24.576-55.296 55.296-55.296 30.208 0 55.296 24.576 55.296 55.296s-24.576 55.296-55.296 55.296z" fill="#2C2C2C" p-id="30994"></path><path d="M193.536 314.368H28.16C12.8 314.368 0 326.656 0 342.528c0 15.36 12.288 28.16 28.16 28.16h165.376c15.872 0 28.16-12.8 28.16-28.16s-11.776-28.16-28.16-28.16z m0 335.36H28.16c-15.36 0-28.16 12.8-28.16 28.16s12.288 28.16 28.16 28.16h165.376c15.872 0 28.16-12.8 28.16-28.16s-11.776-28.16-28.16-28.16z" fill="#2C2C2C" p-id="30995"></path></svg>