<?xml version="1.0" standalone="no"?><!DOCTYPE svg PUBLIC "-//W3C//DTD SVG 1.1//EN" "http://www.w3.org/Graphics/SVG/1.1/DTD/svg11.dtd"><svg t="1737719984497" class="icon" viewBox="0 0 1024 1024" version="1.1" xmlns="http://www.w3.org/2000/svg" p-id="29049" xmlns:xlink="http://www.w3.org/1999/xlink" width="256" height="256"><path d="M628.428 397.745c-7.5-7.498-15.493-14.256-23.731-20.522l-0.015 0.013c-8.478-8.155-19.99-13.176-32.683-13.176-26.05 0-47.167 21.117-47.167 47.166a46.964 46.964 0 0 0 11.01 30.277h-0.001a47.356 47.356 0 0 0 11.638 10.02c4.448 3.667 8.814 7.279 12.895 11.36l3.889 3.89c48.885 48.824 34.29 132.94-14.594 181.826L341.07 857.137c-48.884 48.824-128.356 48.824-177.24 0l-3.92-3.923c-48.887-48.882-48.887-128.414 0-177.177l92.157-92.127c11.823-9.386 19.415-23.872 19.415-40.138 0-28.294-22.937-51.229-51.23-51.229a50.985 50.985 0 0 0-28.793 8.856c-0.026-0.055-0.054-0.107-0.08-0.163l-0.984 0.919a51.525 51.525 0 0 0-9.74 9.114l-95.771 89.617c-90.025 90.088-90.025 237.426 0 327.388l3.888 3.887c90.026 89.963 237.301 89.963 327.326 0l208.538-208.599c89.9-90.02 97.522-232.027 7.623-321.99l-3.83-3.827z" fill="#000000" p-id="29050"></path><path d="M929.027 91.846l-3.888-3.888c-90.025-90.025-237.3-90.025-327.324 0L389.277 296.556c-90.025 90.025-94.983 220.027-4.958 310.11l3.826 3.768c4.09 4.087 8.333 7.94 12.665 11.637a44.749 44.749 0 0 0 10.914 8.872l0.093 0.075 0.015-0.012a44.307 44.307 0 0 0 22.158 5.91c24.592 0 44.528-19.937 44.528-44.528 0-6.94-1.59-13.51-4.425-19.367-5.886-13.216-16.905-21.262-24.527-28.887l-3.828-3.765c-48.882-48.883-30.32-119.902 18.563-168.785l208.66-208.538c48.764-48.886 128.263-48.886 177.149 0l3.89 3.826c48.885 48.887 48.885 128.449 0 177.272l-91.855 91.918c-12.497 9.259-20.6 24.109-20.6 40.854 0 28.063 22.75 50.815 50.814 50.815a50.57 50.57 0 0 0 26.635-7.538c0.058 0.1 0.113 0.19 0.17 0.291l1.426-1.314a51.082 51.082 0 0 0 11.564-10.671l96.807-89.327c90.091-90.024 90.091-237.301 0.066-327.326z" fill="#000000" p-id="29051"></path></svg>