<?xml version="1.0" standalone="no"?><!DOCTYPE svg PUBLIC "-//W3C//DTD SVG 1.1//EN" "http://www.w3.org/Graphics/SVG/1.1/DTD/svg11.dtd"><svg t="1737719072461" class="icon" viewBox="0 0 1024 1024" version="1.1" xmlns="http://www.w3.org/2000/svg" p-id="22022" xmlns:xlink="http://www.w3.org/1999/xlink" width="256" height="256"><path d="M978.285714 795.428571H310.857143c-5.028571 0-9.142857 4.114286-9.142857 9.142858v64c0 5.028571 4.114286 9.142857 9.142857 9.142857h667.428571c5.028571 0 9.142857-4.114286 9.142857-9.142857v-64c0-5.028571-4.114286-9.142857-9.142857-9.142858z m0-649.142857H310.857143c-5.028571 0-9.142857 4.114286-9.142857 9.142857v64c0 5.028571 4.114286 9.142857 9.142857 9.142858h667.428571c5.028571 0 9.142857-4.114286 9.142857-9.142858v-64c0-5.028571-4.114286-9.142857-9.142857-9.142857z m0 324.571429H310.857143c-5.028571 0-9.142857 4.114286-9.142857 9.142857v64c0 5.028571 4.114286 9.142857 9.142857 9.142857h667.428571c5.028571 0 9.142857-4.114286 9.142857-9.142857v-64c0-5.028571-4.114286-9.142857-9.142857-9.142857zM173.714286 740.571429H41.142857c-2.514286 0-4.571429 2.057143-4.571428 4.571428v38.857143c0 2.514286 2.057143 4.571429 4.571428 4.571429h82.742857v23.428571h-40.8c-2.514286 0-4.571429 2.057143-4.571428 4.571429v38.857142c0 2.514286 2.057143 4.571429 4.571428 4.571429h40.8V884.571429H41.142857c-2.514286 0-4.571429 2.057143-4.571428 4.571428v38.857143c0 2.514286 2.057143 4.571429 4.571428 4.571429h132.571429c2.514286 0 4.571429-2.057143 4.571428-4.571429V745.142857c0-2.514286-2.057143-4.571429-4.571428-4.571428zM41.142857 141.714286h43.428572v137.142857c0 2.514286 2.057143 4.571429 4.571428 4.571428h45.714286c2.514286 0 4.571429-2.057143 4.571428-4.571428V100.571429c0-5.028571-4.114286-9.142857-9.142857-9.142858h-89.142857c-2.514286 0-4.571429 2.057143-4.571428 4.571429v41.142857c0 2.514286 2.057143 4.571429 4.571428 4.571429z m132.571429 274.285714H41.142857c-2.514286 0-4.571429 2.057143-4.571428 4.571429v41.142857c0 2.514286 2.057143 4.571429 4.571428 4.571428h78.171429l-80.342857 88.8a9.485714 9.485714 0 0 0-2.4 6.171429V603.428571c0 2.514286 2.057143 4.571429 4.571428 4.571429h132.571429c2.514286 0 4.571429-2.057143 4.571428-4.571429v-41.142857c0-2.514286-2.057143-4.571429-4.571428-4.571428h-78.171429l80.342857-88.8a9.485714 9.485714 0 0 0 2.4-6.171429V420.571429c0-2.514286-2.057143-4.571429-4.571428-4.571429z" p-id="22023" fill="#000000"></path></svg>