<?xml version="1.0" standalone="no"?><!DOCTYPE svg PUBLIC "-//W3C//DTD SVG 1.1//EN" "http://www.w3.org/Graphics/SVG/1.1/DTD/svg11.dtd"><svg t="1737719943988" class="icon" viewBox="0 0 1152 1024" version="1.1" xmlns="http://www.w3.org/2000/svg" p-id="28010" xmlns:xlink="http://www.w3.org/1999/xlink" width="288" height="256"><path d="M26.8 878l46-156.2c8.4-28.2 23.6-54 44.4-74.8L725.4 38.6c50-50 131-50 181 0l78.8 78.8c6.2 6.2 11.8 13 16.4 20 32.8 49.6 27.4 117.2-16.4 161L377 906.8c-2.6 2.6-5.2 5.2-8 7.6-19.2 17-42 29.6-66.8 36.8l-156.2 46L61.6 1022c-16.8 5-35 0.4-47.4-12.2s-17.2-30.4-12.2-47.4L26.8 878z m124.4-82.4l-32.4 109.6 109.6-32.2 46.8-13.8c12.8-3.8 24.6-10.8 34-20.2L766 382l-124-124L185 714.8c-1.2 1.2-2.4 2.4-3.4 3.6-7.8 8.8-13.4 19.2-16.8 30.4l-13.8 46.8zM496 928h608c26.6 0 48 21.4 48 48s-21.4 48-48 48H496c-26.6 0-48-21.4-48-48s21.4-48 48-48z" p-id="28011" fill="#000000"></path></svg>