<?xml version="1.0" standalone="no"?><!DOCTYPE svg PUBLIC "-//W3C//DTD SVG 1.1//EN" "http://www.w3.org/Graphics/SVG/1.1/DTD/svg11.dtd"><svg t="1737699486235" class="icon" viewBox="0 0 1024 1024" version="1.1" xmlns="http://www.w3.org/2000/svg" p-id="32014" xmlns:xlink="http://www.w3.org/1999/xlink" width="256" height="256"><path d="M440.183 137.527l-23.939-10.26H94.779L64 161.466v239.389c20.519-15.959 42.178-29.639 64.977-41.038V192.244h273.588l54.718 54.718 23.939 10.26h417.221l-3.42 64.977H477.802l-20.519 10.26-23.939 20.519c20.519 9.12 39.898 20.519 58.137 34.198v-3.42h406.962l-3.42 451.42H600.916c-11.399 22.799-25.079 43.318-41.038 61.557h369.344L960 865.954V226.443l-30.779-34.198h-434.32l-54.718-54.718z m-58.137 536.916c0-27.359-9.12-50.158-27.359-68.397-18.239-18.239-40.468-27.359-66.687-27.359s-49.018 9.12-68.397 27.359c-19.379 18.239-29.069 41.038-29.069 68.397s9.69 50.158 29.069 68.397c19.379 18.239 42.178 27.359 68.397 27.359s49.018-9.12 68.397-27.359c19.379-18.239 29.069-41.038 29.069-68.397h-3.42z m129.954 0c0-41.038-10.26-78.656-30.779-112.855-20.519-34.198-47.878-61.557-82.076-82.076-34.198-20.519-71.247-30.779-111.145-30.779s-77.517 10.26-112.855 30.779c-35.338 20.519-62.697 47.878-82.076 82.076C73.69 595.786 64 633.405 64 674.443s9.69 78.656 29.069 112.855c19.379 34.198 46.738 60.987 82.076 80.366 35.338 19.379 72.957 29.069 112.855 29.069s76.947-9.69 111.145-29.069c34.198-19.379 61.557-46.168 82.076-80.366C501.74 753.099 512 715.481 512 674.443zM286.29 835.176c-43.318 0-80.366-15.959-111.145-47.878-30.779-31.919-46.168-70.107-46.168-114.565s15.389-82.076 46.168-112.855S243.542 513.71 288 513.71s82.076 15.389 112.855 46.168 46.168 68.397 46.168 112.855-15.389 82.646-46.168 114.565c-30.779 31.918-68.967 47.878-114.565 47.878z" p-id="32015" fill="#000000"></path></svg>