<?xml version="1.0" standalone="no"?><!DOCTYPE svg PUBLIC "-//W3C//DTD SVG 1.1//EN" "http://www.w3.org/Graphics/SVG/1.1/DTD/svg11.dtd"><svg t="1737576761126" class="icon" viewBox="0 0 1024 1024" version="1.1" xmlns="http://www.w3.org/2000/svg" p-id="10946" xmlns:xlink="http://www.w3.org/1999/xlink" width="256" height="256"><path d="M725.333333 725.333333v213.333334h85.333334a128 128 0 0 0 128-128v-85.333334h-213.333334z m-85.333333 0H384v213.333334h256v-213.333334z m85.333333-85.333333h213.333334V384h-213.333334v256z m-85.333333 0V384H384v256h256z m85.333333-341.333333h213.333334V213.333333a128 128 0 0 0-128-128h-85.333334v213.333334z m-85.333333 0V85.333333H384v213.333334h256z m384 391.552V810.666667a213.333333 213.333333 0 0 1-213.333333 213.333333H213.333333a213.333333 213.333333 0 0 1-213.333333-213.333333V213.333333a213.333333 213.333333 0 0 1 213.333333-213.333333h597.333334a213.333333 213.333333 0 0 1 213.333333 213.333333v120.448a35.968 35.968 0 0 1 0 15.104v326.229334a35.968 35.968 0 0 1 0 15.104zM298.666667 85.333333H213.333333a128 128 0 0 0-128 128v85.333334h213.333334V85.333333zM85.333333 384v256h213.333334V384H85.333333z m0 341.333333v85.333334a128 128 0 0 0 128 128h85.333334v-213.333334H85.333333z" p-id="10947" fill="#000000"></path></svg>