<?xml version="1.0" standalone="no"?><!DOCTYPE svg PUBLIC "-//W3C//DTD SVG 1.1//EN" "http://www.w3.org/Graphics/SVG/1.1/DTD/svg11.dtd"><svg t="1737720975567" class="icon" viewBox="0 0 1024 1024" version="1.1" xmlns="http://www.w3.org/2000/svg" p-id="55967" xmlns:xlink="http://www.w3.org/1999/xlink" width="256" height="256"><path d="M512 1024a512 512 0 1 1 512-512 512 512 0 0 1-512 512zM512 128a384 384 0 1 0 384 384 384 384 0 0 0-384-384z m192 448H512a64 64 0 0 1-64-64V256a64 64 0 0 1 128 0v192h128a64 64 0 0 1 0 128z" p-id="55968" fill="#000000"></path></svg>