<?xml version="1.0" standalone="no"?><!DOCTYPE svg PUBLIC "-//W3C//DTD SVG 1.1//EN" "http://www.w3.org/Graphics/SVG/1.1/DTD/svg11.dtd"><svg t="1737559631522" class="icon" viewBox="0 0 1024 1024" version="1.1" xmlns="http://www.w3.org/2000/svg" p-id="3489" xmlns:xlink="http://www.w3.org/1999/xlink" width="256" height="256"><path d="M870.4 179.2c20.48 20.48 20.48 51.2 0 71.68L506.88 614.4c-20.48 20.48-51.2 20.48-71.68 0-20.48-20.48-20.48-51.2 0-71.68l363.52-363.52c20.48-15.36 56.32-15.36 71.68 0z m-87.04 358.4c0-30.72 20.48-51.2 51.2-51.2 25.6 0 51.2 20.48 51.2 51.2v307.2c0 56.32-46.08 102.4-102.4 102.4H240.64c-56.32 0-102.4-46.08-102.4-102.4v-665.6c0-56.32 46.08-102.4 102.4-102.4h368.64c25.6 0 51.2 20.48 51.2 51.2s-20.48 51.2-51.2 51.2H286.72c-30.72 0-51.2 20.48-51.2 51.2v563.2c0 30.72 20.48 51.2 51.2 51.2h440.32c30.72 0 51.2-20.48 51.2-51.2v-256z" fill="#000000" p-id="3490"></path></svg>