<?xml version="1.0" standalone="no"?><!DOCTYPE svg PUBLIC "-//W3C//DTD SVG 1.1//EN" "http://www.w3.org/Graphics/SVG/1.1/DTD/svg11.dtd"><svg t="1737562356706" class="icon" viewBox="0 0 1137 1024" version="1.1" xmlns="http://www.w3.org/2000/svg" p-id="8848" xmlns:xlink="http://www.w3.org/1999/xlink" width="284.25" height="256"><path d="M56.888889 0h1024a56.888889 56.888889 0 0 1 56.888889 56.888889v910.222222a56.888889 56.888889 0 0 1-56.888889 56.888889H56.888889a56.888889 56.888889 0 0 1-56.888889-56.888889V56.888889a56.888889 56.888889 0 0 1 56.888889-56.888889z m56.888889 113.777778v796.444444h910.222222V113.777778H113.777778z m170.666666 597.333333H170.666667v-398.222222h113.777777l113.777778 113.777778 113.777778-113.777778h113.777778v398.222222H512v-227.555555l-113.777778 113.777777-113.777778-113.777777v227.555555z m625.777778-170.666667h113.777778l-170.666667 170.666667-170.666666-170.666667h113.777777v-227.555555h113.777778v227.555555z" fill="#000000" p-id="8849"></path></svg>