<?xml version="1.0" standalone="no"?><!DOCTYPE svg PUBLIC "-//W3C//DTD SVG 1.1//EN" "http://www.w3.org/Graphics/SVG/1.1/DTD/svg11.dtd"><svg t="1737695506630" class="icon" viewBox="0 0 1024 1024" version="1.1" xmlns="http://www.w3.org/2000/svg" p-id="18849" xmlns:xlink="http://www.w3.org/1999/xlink" width="256" height="256"><path d="M256 85.333333h341.333333l256 256v512a85.333333 85.333333 0 0 1-85.333333 85.333334H256a85.333333 85.333333 0 0 1-85.333333-85.333334V170.666667c0-47.36 37.973333-85.333333 85.333333-85.333334m298.666667 298.666667h234.666666L554.666667 149.333333V384m-128 238.506667l-90.453334-90.88-60.586666 60.586666L366.506667 682.666667l-90.88 90.453333 60.586666 60.586667L426.666667 742.826667l90.453333 90.88 60.586667-60.586667L486.826667 682.666667l90.88-90.453334-60.586667-60.586666L426.666667 622.506667z" p-id="18850"></path></svg>