<?xml version="1.0" standalone="no"?><!DOCTYPE svg PUBLIC "-//W3C//DTD SVG 1.1//EN" "http://www.w3.org/Graphics/SVG/1.1/DTD/svg11.dtd"><svg t="1737695476942" class="icon" viewBox="0 0 1024 1024" version="1.1" xmlns="http://www.w3.org/2000/svg" p-id="17848" xmlns:xlink="http://www.w3.org/1999/xlink" width="256" height="256"><path d="M804 126.016l98.016 99.008q14.016 12.992 14.016 32.512t-14.016 33.504l-316 316q-12.992 12.992-31.008 14.016l-152.992 7.008q-7.008 0.992-11.008-4t-4-12l19.008-140.992q2.016-16 14.016-27.008l318.016-318.016q14.016-14.016 32.992-14.016t32.992 14.016z m-311.008-9.024q23.008 0 40 16t18.496 39.008-13.504 40.992-39.008 20l-6.016 0.992H255.968q-4 0-7.008 2.016t-4 6.016l-0.992 3.008v512q0 4 2.496 7.008t6.496 4l3.008 0.992h512q4 0 7.008-2.496t4-6.496l0.992-3.008v-146.016q-0.992-23.008 15.008-40t39.488-18.496 40.992 13.504 20.512 39.008v152q0 32.992-16 61.504t-43.008 46.496-60.992 20H255.968q-32.992 0-61.504-15.488t-46.496-43.008-20-60.512V245.024q0-32.992 16-61.504t43.008-46.016 60.992-19.488l244.992-0.992z" p-id="17849"></path></svg>