<?xml version="1.0" standalone="no"?><!DOCTYPE svg PUBLIC "-//W3C//DTD SVG 1.1//EN" "http://www.w3.org/Graphics/SVG/1.1/DTD/svg11.dtd"><svg t="1737695420804" class="icon" viewBox="0 0 1024 1024" version="1.1" xmlns="http://www.w3.org/2000/svg" p-id="16804" xmlns:xlink="http://www.w3.org/1999/xlink" width="256" height="256"><path d="M64 170.666667a85.333333 85.333333 0 0 1 85.333333-85.333334h256a42.666667 42.666667 0 0 1 32.768 15.36l93.866667 112.64H874.666667a85.333333 85.333333 0 0 1 85.333333 85.333334v213.333333a42.666667 42.666667 0 1 1-85.333333 0V298.666667H512a42.666667 42.666667 0 0 1-32.768-15.36L385.365333 170.666667H149.333333v682.666666h234.666667a42.666667 42.666667 0 1 1 0 85.333334H149.333333a85.333333 85.333333 0 0 1-85.333333-85.333334V170.666667z" fill="#505764" p-id="16805"></path><path d="M106.666667 405.333333h810.666666v85.333334H106.666667v-85.333334z" fill="#505764" p-id="16806"></path><path d="M759.146667 609.834667a42.666667 42.666667 0 0 1 60.330666 0l85.333334 85.333333a42.666667 42.666667 0 0 1 0 60.352l-213.333334 213.333333A42.666667 42.666667 0 0 1 661.333333 981.333333h-85.333333a42.666667 42.666667 0 0 1-42.666667-42.666666v-85.333334a42.666667 42.666667 0 0 1 12.501334-30.186666l213.333333-213.333334zM618.645333 871.04V896h25.002667l170.666667-170.666667-25.002667-25.002666-170.666667 170.666666zM832 936.661333c0-23.509333 19.050667-42.56 42.56-42.56h74.88a42.56 42.56 0 0 1 0 85.12h-74.88A42.56 42.56 0 0 1 832 936.661333z" fill="#0A6EFF" p-id="16807"></path></svg>